<svg width="25" height="25" viewBox="0 0 25 25" fill="none" xmlns="http://www.w3.org/2000/svg">
	<path fill-rule="evenodd" clip-rule="evenodd" d="M22.5 12.5C22.5 6.98625 18.0138 2.5 12.5 2.5C6.98625 2.5 2.5 6.98625 2.5 12.5C2.5 18.0138 6.98625 22.5 12.5 22.5C18.0138 22.5 22.5 18.0138 22.5 12.5ZM25 12.5C25 19.4037 19.4037 25 12.5 25C5.59625 25 0 19.4037 0 12.5C0 5.59625 5.59625 0 12.5 0C19.4037 0 25 5.59625 25 12.5ZM20 13.75C20 14.44 19.44 15 18.75 15H13.75C12.3687 15 11.25 13.8813 11.25 12.5V6.25C11.25 5.56 11.81 5 12.5 5C13.19 5 13.75 5.56 13.75 6.25V11.25C13.75 11.9375 14.3125 12.5 15 12.5H18.75C19.44 12.5 20 13.06 20 13.75Z" fill="#059669" />
</svg>
