<svg width="26" height="30" viewBox="0 0 26 30" fill="none" xmlns="http://www.w3.org/2000/svg">
<path d="M25.7143 28.5714H0V5L12.8571 0L25.7143 5V28.5714Z" fill="#C5CAE9"/>
<path d="M0 28.5714H25.7143V30H0V28.5714Z" fill="#9FA8DA"/>
<path d="M10.0001 23.5714H15.7143V30H10.0001V23.5714Z" fill="#BF360C"/>
<path d="M17.8571 17.8571H22.1428V21.4285H17.8571V17.8571ZM10.7143 17.8571H15V21.4285H10.7143V17.8571ZM3.57141 17.8571H7.85712V21.4285H3.57141V17.8571ZM17.8571 23.5714H22.1428V27.1428H17.8571V23.5714ZM3.57141 23.5714H7.85712V27.1428H3.57141V23.5714ZM17.8571 12.1428H22.1428V15.7143H17.8571V12.1428ZM10.7143 12.1428H15V15.7143H10.7143V12.1428ZM3.57141 12.1428H7.85712V15.7143H3.57141V12.1428ZM17.8571 6.42854H22.1428V9.99997H17.8571V6.42854ZM10.7143 6.42854H15V9.99997H10.7143V6.42854ZM3.57141 6.42854H7.85712V9.99997H3.57141V6.42854Z" fill="#1565C0"/>
</svg>
