<svg width="20" height="25" viewBox="0 0 20 25" fill="none" xmlns="http://www.w3.org/2000/svg">
	<path fill-rule="evenodd" clip-rule="evenodd" d="M0 2.5C0 1.11929 1.11929 0 2.5 0H17.5C18.8808 0 20 1.11929 20 2.5V22.5C20 23.8808 18.8808 25 17.5 25H2.5C1.11929 25 0 23.8808 0 22.5V2.5ZM17.5 2.5H2.5V22.5H17.5V2.5ZM5 8.75C5 8.05965 5.55965 7.5 6.25 7.5H13.75C14.4404 7.5 15 8.05965 15 8.75C15 9.44035 14.4404 10 13.75 10H6.25C5.55965 10 5 9.44035 5 8.75ZM6.25 13.75C5.55965 13.75 5 14.3096 5 15C5 15.6904 5.55965 16.25 6.25 16.25H10C10.6904 16.25 11.25 15.6904 11.25 15C11.25 14.3096 10.6904 13.75 10 13.75H6.25Z" fill="#059669" />
</svg>
