<svg width="32" height="25" viewBox="0 0 32 25" fill="none" xmlns="http://www.w3.org/2000/svg">
<path d="M25.0477 21.6258L23.914 14.8388H23.9107C23.7532 13.9211 23.1223 12.9707 22.0481 12.6699C22.0348 12.6662 22.0216 12.6633 22.008 12.6614L19.3628 12.2644C19.3466 12.262 19.312 12.2607 19.2955 12.2607C19.1282 12.2607 18.987 12.3854 18.9667 12.5516C18.8258 13.6953 17.8803 14.5932 16.6635 14.8388H15.336C14.1191 14.5932 13.1735 13.6954 13.033 12.5516C13.0123 12.3806 12.8583 12.252 12.6958 12.2609C12.6763 12.2598 12.6573 12.2614 12.6369 12.2644L9.99172 12.6614C9.97816 12.6633 9.96484 12.6663 9.95159 12.6699C8.87734 12.9707 8.24641 13.9211 8.08903 14.8388H8.08572L6.95197 21.6258C6.71741 22.8582 7.66228 24 8.91684 24H8.99997H23H23.0831C24.3377 24 25.2825 22.8582 25.0477 21.6258Z" fill="#FF4F19"/>
<path d="M16 11.9294C14.8425 11.9294 13.7924 11.4327 13.0176 10.6299C13.017 11.1111 12.9995 11.8054 12.8719 12.3121C12.9556 12.3633 13.0206 12.4473 13.0332 12.5517C13.1986 13.8973 14.4739 14.9118 16 14.9118C17.5258 14.9118 18.8011 13.8971 18.9668 12.5517C18.9797 12.4471 19.0432 12.3633 19.1281 12.3123C19.0006 11.8056 18.983 11.1111 18.9824 10.6299C18.2076 11.4327 17.1574 11.9294 16 11.9294Z" fill="#FDC88E"/>
<path d="M18.9178 10.691C18.1494 11.4563 17.1266 11.9294 16 11.9294C14.8425 11.9294 13.7924 11.4327 13.0176 10.6299C13.017 11.1111 12.9995 11.8054 12.8719 12.3121C12.9556 12.3633 13.0206 12.4473 13.0332 12.5517C13.1063 13.1464 13.3968 13.676 13.8294 14.0824C15.8246 13.8014 18.0891 11.8313 18.9178 10.691Z" fill="#FFB980"/>
<path d="M18.9823 3.64507H13.349C12.4355 3.64507 11.6921 4.38838 11.6921 5.30194V7.29019C11.6921 9.84825 13.6247 11.9294 16 11.9294C18.3752 11.9294 20.3078 9.84825 20.3078 7.29019V4.97057C20.3078 4.23969 19.7134 3.64507 18.9823 3.64507Z" fill="#FFE1B2"/>
<path d="M18.3196 0H14.0117C13.3885 0 12.8646 0.432313 12.7235 1.01275C11.5828 1.15775 10.6981 2.13437 10.6981 3.31375V4.97062C10.6981 5.82463 11.0606 6.62131 11.6922 7.1875V5.302C11.6922 4.38844 12.4355 3.64512 13.3491 3.64512H18.9824C19.7134 3.64512 20.3079 4.23975 20.3079 4.97062V7.18713C20.9396 6.62106 21.302 5.82438 21.302 4.97062V2.98238C21.3019 1.33794 19.9641 0 18.3196 0Z" fill="#7E5449"/>
<path d="M22 24H10C9.72387 24 9.5 23.7761 9.5 23.5V17C9.5 16.7239 9.72387 16.5 10 16.5H22C22.2761 16.5 22.5 16.7239 22.5 17V23.5C22.5 23.7761 22.2761 24 22 24Z" fill="#D8DCE1"/>
<path d="M31.5 25H0.5C0.223625 25 0 24.7761 0 24.5C0 24.2239 0.223625 24 0.5 24H31.5C31.7764 24 32 24.2239 32 24.5C32 24.7761 31.7764 25 31.5 25Z" fill="#9F6459"/>
<path d="M16 21.5C16.5523 21.5 17 21.0523 17 20.5C17 19.9477 16.5523 19.5 16 19.5C15.4477 19.5 15 19.9477 15 20.5C15 21.0523 15.4477 21.5 16 21.5Z" fill="white"/>
</svg>
