<svg width="22" height="20" viewBox="0 0 22 20" fill="none" xmlns="http://www.w3.org/2000/svg">
<path d="M18.7077 6.60769L18.4615 6.53846C18.3451 6.51661 18.2332 6.47498 18.1308 6.41538C18.4826 5.99007 18.7461 5.49892 18.9059 4.97061C19.0657 4.44231 19.1186 3.88745 19.0615 3.33846V2.9C19.0615 2.13087 18.756 1.39325 18.2121 0.84939C17.6683 0.305535 16.9307 0 16.1615 0C15.3924 0 14.6548 0.305535 14.1109 0.84939C13.5671 1.39325 13.2615 2.13087 13.2615 2.9V3.3C13.1992 3.85519 13.2495 4.41725 13.4094 4.95255C13.5694 5.48784 13.8356 5.98538 14.1923 6.41538L14.1077 6.46154C13.756 5.89716 13.2664 5.43164 12.685 5.10888C12.1036 4.78612 11.4496 4.61676 10.7846 4.61676C10.1196 4.61676 9.46561 4.78612 8.88422 5.10888C8.30282 5.43164 7.8132 5.89716 7.46154 6.46154L7.37692 6.41538C7.72871 5.99007 7.99221 5.49892 8.15202 4.97061C8.31183 4.44231 8.36475 3.88745 8.30769 3.33846V2.9C8.29566 2.13064 7.98311 1.39651 7.43687 0.854581C6.89063 0.312653 6.15405 0.00593302 5.38462 0C4.6192 0.0118998 3.88847 0.321255 3.34717 0.862553C2.80587 1.40385 2.49652 2.13458 2.48462 2.9V3.3C2.42228 3.85519 2.47258 4.41725 2.63251 4.95255C2.79244 5.48784 3.05871 5.98538 3.41538 6.41538C3.31059 6.47581 3.19605 6.51746 3.07692 6.53846L2.83077 6.60769C1.42308 7.07692 0 8.39231 0 10C0 10.204 0.0810437 10.3997 0.225302 10.5439C0.369561 10.6882 0.565218 10.7692 0.769231 10.7692C0.973243 10.7692 1.1689 10.6882 1.31316 10.5439C1.45742 10.3997 1.53846 10.204 1.53846 10C1.53846 9.16154 2.44615 8.36154 3.32308 8.06923C3.37517 8.04827 3.42931 8.0328 3.48462 8.02308C3.94853 7.92417 4.36573 7.67222 4.66923 7.30769C5.13201 7.47197 5.63722 7.47197 6.1 7.30769C6.29677 7.56879 6.56348 7.76882 6.86923 7.88462C6.82715 8.11309 6.804 8.34464 6.8 8.57692C6.8 8.78462 6.8 8.98462 6.8 9.18462C6.8 10.6308 6.76154 12.1308 8.24615 13.8C8.17692 14.2231 7.93846 14.2923 7.40769 14.4385L7.06154 14.5385C5.08462 15.1692 3.07692 17 3.07692 19.2308C3.07692 19.4348 3.15797 19.6304 3.30223 19.7747C3.44648 19.919 3.64214 20 3.84615 20C4.05017 20 4.24582 19.919 4.39008 19.7747C4.53434 19.6304 4.61538 19.4348 4.61538 19.2308C4.61538 17.8 6.10769 16.4462 7.55385 15.9692C7.63928 15.938 7.72664 15.9123 7.81538 15.8923C8.16304 15.8277 8.49356 15.6919 8.78614 15.4933C9.07872 15.2947 9.32701 15.0377 9.51538 14.7385C9.91217 14.906 10.3385 14.9923 10.7692 14.9923C11.1999 14.9923 11.6263 14.906 12.0231 14.7385C12.2115 15.0377 12.4597 15.2947 12.7523 15.4933C13.0449 15.6919 13.3754 15.8277 13.7231 15.8923C13.8118 15.9123 13.8992 15.938 13.9846 15.9692C15.4308 16.4462 16.9231 17.8 16.9231 19.2308C16.9231 19.4348 17.0041 19.6304 17.1484 19.7747C17.2926 19.919 17.4883 20 17.6923 20C17.8963 20 18.092 19.919 18.2362 19.7747C18.3805 19.6304 18.4615 19.4348 18.4615 19.2308C18.4615 17 16.4538 15.1692 14.4769 14.5077L14.1308 14.4077C13.6 14.2615 13.3615 14.1923 13.2923 13.7692C14.7769 12.1308 14.7692 10.6308 14.7385 9.15385C14.7385 8.95385 14.7385 8.75385 14.7385 8.54615C14.7345 8.31387 14.7113 8.08232 14.6692 7.85385C14.975 7.73805 15.2417 7.53803 15.4385 7.27692C15.9012 7.4412 16.4065 7.4412 16.8692 7.27692C17.1727 7.64145 17.5899 7.8934 18.0538 7.99231C18.1091 8.00204 18.1633 8.0175 18.2154 8.03846C19.0923 8.36154 20 9.16154 20 10C20 10.204 20.081 10.3997 20.2253 10.5439C20.3696 10.6882 20.5652 10.7692 20.7692 10.7692C20.9732 10.7692 21.1689 10.6882 21.3132 10.5439C21.4574 10.3997 21.5385 10.204 21.5385 10C21.5385 8.39231 20.1154 7.07692 18.7077 6.60769ZM4.77692 5.63846C4.46861 5.34688 4.23707 4.98367 4.10288 4.58109C3.96868 4.17851 3.93599 3.74902 4.00769 3.33077C4.00769 3.18462 4.00769 3.04615 4.00769 2.9C4.01756 2.53936 4.16626 2.19645 4.4228 1.94278C4.67933 1.68912 5.02389 1.54427 5.38462 1.53846C5.74265 1.54817 6.08335 1.69473 6.33662 1.948C6.58988 2.20126 6.73645 2.54196 6.74615 2.9C6.74615 3.04615 6.74615 3.18462 6.74615 3.33077C6.81786 3.74902 6.78516 4.17851 6.65097 4.58109C6.51678 4.98367 6.28524 5.34688 5.97692 5.63846C5.81352 5.78929 5.5993 5.87304 5.37692 5.87304C5.15455 5.87304 4.94033 5.78929 4.77692 5.63846ZM9.58462 12.9615C8.29231 11.6692 8.30769 10.6538 8.33846 9.21538C8.33846 9.00769 8.33846 8.79231 8.33846 8.57692C8.33846 7.93428 8.59375 7.31796 9.04816 6.86355C9.50258 6.40913 10.1189 6.15385 10.7615 6.15385C11.4042 6.15385 12.0205 6.40913 12.4749 6.86355C12.9293 7.31796 13.1846 7.93428 13.1846 8.57692C13.1846 8.79231 13.1846 9.00769 13.1846 9.21538C13.1846 10.6385 13.2308 11.6692 11.9385 12.9615C11.6193 13.26 11.1986 13.4261 10.7615 13.4261C10.3245 13.4261 9.90381 13.26 9.58462 12.9615ZM15.5462 5.63846C15.2378 5.34688 15.0063 4.98367 14.8721 4.58109C14.7379 4.17851 14.7052 3.74902 14.7769 3.33077C14.7769 3.18462 14.7769 3.04615 14.7769 2.9C14.7769 2.5389 14.9204 2.19258 15.1757 1.93725C15.431 1.68191 15.7774 1.53846 16.1385 1.53846C16.4996 1.53846 16.8459 1.68191 17.1012 1.93725C17.3566 2.19258 17.5 2.5389 17.5 2.9C17.5 3.04615 17.5 3.18462 17.5 3.33077C17.5717 3.74902 17.539 4.17851 17.4048 4.58109C17.2706 4.98367 17.0391 5.34688 16.7308 5.63846C16.5683 5.78495 16.3572 5.86603 16.1385 5.86603C15.9197 5.86603 15.7087 5.78495 15.5462 5.63846Z" fill="white"/>
</svg>
