<svg width="25" height="25" viewBox="0 0 25 25" fill="none" xmlns="http://www.w3.org/2000/svg">
<g clip-path="url(#clip0_39_4)">
<path fill-rule="evenodd" clip-rule="evenodd" d="M23.4375 10.9375C23.2323 10.9374 23.0291 10.9778 22.8395 11.0563C22.6499 11.1348 22.4776 11.2499 22.3325 11.395C22.1874 11.5401 22.0723 11.7124 21.9938 11.902C21.9153 12.0916 21.8749 12.2948 21.875 12.5V21.875H3.125V12.5C3.125 12.0856 2.96038 11.6882 2.66735 11.3951C2.37433 11.1021 1.9769 10.9375 1.5625 10.9375C1.1481 10.9375 0.750671 11.1021 0.457646 11.3951C0.16462 11.6882 6.18386e-08 12.0856 6.18386e-08 12.5V23.4375C-5.76769e-05 23.6427 0.0403182 23.8459 0.118821 24.0355C0.197323 24.2251 0.312414 24.3974 0.457517 24.5425C0.60262 24.6876 0.774892 24.8027 0.964489 24.8812C1.15409 24.9597 1.35729 25.0001 1.5625 25H23.4375C23.6427 25.0001 23.8459 24.9597 24.0355 24.8812C24.2251 24.8027 24.3974 24.6876 24.5425 24.5425C24.6876 24.3974 24.8027 24.2251 24.8812 24.0355C24.9597 23.8459 25.0001 23.6427 25 23.4375V12.5C25.0001 12.2948 24.9597 12.0916 24.8812 11.902C24.8027 11.7124 24.6876 11.5401 24.5425 11.395C24.3974 11.2499 24.2251 11.1348 24.0355 11.0563C23.8459 10.9778 23.6427 10.9374 23.4375 10.9375Z" fill="white"/>
<path fill-rule="evenodd" clip-rule="evenodd" d="M14.0625 10.9375V1.37163C14.0625 0.61416 13.3637 0 12.5 0C11.6363 0 10.9375 0.61416 10.9375 1.37163V10.9375H6.25L12.5 17.1875L18.75 10.9375H14.0625Z" fill="white"/>
</g>
<defs>
<clipPath id="clip0_39_4">
<rect width="25" height="25" fill="white"/>
</clipPath>
</defs>
</svg>
