<svg width="27" height="25" viewBox="0 0 27 25" fill="none" xmlns="http://www.w3.org/2000/svg">
<path fill-rule="evenodd" clip-rule="evenodd" d="M11.9047 2.38095C6.64489 2.38095 2.38095 6.64489 2.38095 11.9047C2.38095 17.1646 6.64489 21.4285 11.9047 21.4285C12.5622 21.4285 13.0952 21.9615 13.0952 22.619C13.0952 23.2765 12.5622 23.8095 11.9047 23.8095C5.32993 23.8095 0 18.4795 0 11.9047C0 5.32993 5.32993 0 11.9047 0C18.4795 0 23.8095 5.32993 23.8095 11.9047C23.8095 12.5622 23.2765 13.0952 22.619 13.0952C21.9615 13.0952 21.4285 12.5622 21.4285 11.9047C21.4285 6.64489 17.1646 2.38095 11.9047 2.38095ZM25.7308 15.7269C26.2498 16.1306 26.3433 16.8785 25.9397 17.3975L20.3841 24.5403C20.1767 24.807 19.866 24.9729 19.5291 24.997C19.1923 25.021 18.8612 24.9008 18.6181 24.6664L15.8403 21.9878C15.367 21.5315 15.3533 20.7778 15.8097 20.3046C16.266 19.8313 17.0197 19.8176 17.4929 20.274L19.3176 22.0334L24.0602 15.9358C24.4639 15.4168 25.2119 15.3233 25.7308 15.7269ZM13.0952 4.7619C13.0952 4.10442 12.5622 3.57142 11.9047 3.57142C11.2472 3.57142 10.7143 4.10442 10.7143 4.7619V11.9047C10.7143 12.2205 10.8397 12.5233 11.063 12.7465L14.6344 16.3179C15.0993 16.7828 15.8531 16.7828 16.3179 16.3179C16.7828 15.8531 16.7828 15.0993 16.3179 14.6344L13.0952 11.4116V4.7619Z" fill="white"/>
</svg>
