<svg width="188" height="32" viewBox="0 0 188 32" fill="none" xmlns="http://www.w3.org/2000/svg">
<path d="M166.565 10.706C165.412 9.64713 163.835 9.10596 161.788 9.10596C159.459 9.10596 157.247 9.64713 155.106 10.706V17.553C155.624 17.3648 156.212 17.2707 156.8 17.2707C157.459 17.2707 158.047 17.3883 158.612 17.6001V12.4707C159.553 12.306 160.471 12.2118 161.318 12.2118C162.071 12.2118 162.706 12.2824 163.176 12.4236C163.671 12.5648 164.024 12.7765 164.235 13.0589C164.447 13.3413 164.588 13.6236 164.659 13.8824C164.729 14.1413 164.776 14.4707 164.776 14.8707V23.9295H168.282V15.153C168.282 13.2471 167.718 11.7648 166.565 10.706Z" fill="white"/>
<path d="M27.0588 9.48242L30.2118 20.3295L33.5059 9.48242H37.4588L32.4235 24.0001H28.2824L26.8 19.7177L25.5059 14.8942L24.2118 19.7177L22.7294 24.0001H18.5647L13.5059 9.48242H17.4824L20.7765 20.3295L23.9059 9.48242H27.0588Z" fill="white"/>
<path d="M57.7882 9.50587L58.0471 11.1765C59.1529 9.38822 60.6588 9.12939 62.1176 9.12939C63.6 9.12939 65.0353 9.71763 65.8353 10.4941L64.2353 13.6C63.5059 12.9882 62.8235 12.6588 61.6706 12.6588C59.7882 12.6588 58.0706 13.647 58.0706 16.3059V23.9059H54.4941V9.50587H57.7882Z" fill="white"/>
<path d="M98.3059 5.43538C98.3059 8.21185 94.0941 8.21185 94.0941 5.43538C94.0941 2.65891 98.3059 2.65891 98.3059 5.43538ZM94.4235 9.43538V23.906H98V9.43538H94.4235Z" fill="white"/>
<path d="M104.706 9.43523V23.9293C104.706 27.5058 103.153 29.8117 99.9059 29.8117C98.8471 29.8117 97.7412 29.5293 96.7294 28.847L98.0235 26.0705C98.6353 26.3529 99.2235 26.5176 99.7412 26.4705C100.918 26.4235 101.176 25.5058 101.176 23.9293V9.43523H104.706ZM100.847 5.4117C100.847 8.18817 105.059 8.18817 105.059 5.4117C105.059 2.63523 100.847 2.63523 100.847 5.4117Z" fill="white"/>
<path d="M138.965 23.9295V10.706C141.106 9.64713 143.341 9.10596 145.647 9.10596C147.671 9.10596 149.271 9.64713 150.424 10.706C151.576 11.7648 152.141 13.2471 152.141 15.1765V23.9295H148.635V14.8707C148.635 14.4707 148.612 14.1648 148.541 13.8824C148.471 13.6236 148.329 13.3413 148.118 13.0589C147.906 12.7765 147.553 12.5648 147.059 12.4236C146.565 12.2824 145.953 12.2118 145.2 12.2118C144.353 12.2118 143.435 12.306 142.494 12.4707V23.9295H138.965Z" fill="white"/>
<path d="M67.6 23.9294H71.1529V17.4117L76.8 23.9294H81.1059V23.6706L74.4 16.3058L80.4235 9.57644V9.36467H76.1647L71.1529 15.2941V4.25879H67.6V23.9294Z" fill="white"/>
<path d="M116.235 9.29408C115.412 9.15291 114.612 9.05879 113.835 9.05879C111.671 9.05879 110.024 9.69408 108.894 10.9411C107.741 12.1882 107.176 13.9764 107.176 16.3294C107.176 17.6235 107.341 18.7529 107.671 19.7411C108 20.7294 108.4 21.4823 108.871 21.9764C109.341 22.4941 109.906 22.8941 110.541 23.2235C111.176 23.5529 111.741 23.7411 112.212 23.8117C112.682 23.8823 113.153 23.9294 113.647 23.9294C115.718 23.9294 117.247 23.4588 118.235 22.4941C119.247 21.5294 119.741 20.4 119.741 19.0823V4.25879H116.282V9.29408H116.235ZM116.235 19.3882C116.235 20.4235 115.365 20.9411 113.6 20.9411C112.494 20.9411 111.718 20.5647 111.294 19.8117C110.847 19.0588 110.635 17.8353 110.635 16.1411C110.635 14.5176 110.918 13.3882 111.482 12.7294C112.047 12.0941 112.871 11.7647 113.953 11.7647C114.8 11.7647 115.553 11.8588 116.235 12V19.3882Z" fill="white"/>
<path d="M84.5176 9.36467H82.0941V12.3529H84.5176V19.1529C84.5176 20.6353 84.9176 21.8117 85.7412 22.6588C86.5647 23.5058 87.6941 23.9294 89.1059 23.9294C89.1294 23.9294 89.1529 23.9294 89.1765 23.9294C89.9765 23.9294 90.7059 23.7882 91.3882 23.5058V20.6353C90.9176 20.847 90.3529 20.9411 89.7412 20.9411C89.0824 20.9411 88.6353 20.8235 88.3765 20.6117C88.1176 20.4 87.9765 19.9764 87.9765 19.3647V12.3529H91.3882V9.3882H87.9765V4.25879H84.5176V9.36467Z" fill="white"/>
<path d="M158.918 22.0706C158.918 24.8471 154.706 24.8471 154.706 22.0706C154.706 19.2942 158.918 19.2942 158.918 22.0706Z" fill="white"/>
<path d="M132.424 16.8706H130.024C129.882 16.447 129.482 16.1411 128.988 16.1411C128.941 16.1411 128.918 16.1411 128.871 16.1411L127.765 14.3294C127.624 14.0941 127.294 14 127.059 14.1647C126.824 14.3058 126.729 14.6353 126.894 14.8706L128.024 16.7294C127.953 16.8706 127.906 17.0588 127.906 17.247C127.906 17.8588 128.4 18.3294 128.988 18.3294C129.459 18.3294 129.835 18.047 130 17.647H132.4C132.612 17.647 132.776 17.4823 132.776 17.2706C132.824 17.0588 132.635 16.8706 132.424 16.8706Z" fill="white"/>
<path d="M136.941 16.7293V16.7058C136.941 12.494 133.506 9.08228 129.294 9.08228C125.082 9.08228 121.671 12.5176 121.671 16.7058C121.671 20.9176 125.106 24.3293 129.294 24.3293C131.694 24.3293 133.835 23.1999 135.247 21.4587L132.918 19.1293C132.141 20.2823 130.8 21.0587 129.294 21.0587C126.894 21.0587 124.941 19.1058 124.941 16.7058C124.941 14.3058 126.894 12.3529 129.294 12.3529C131.694 12.3529 133.647 14.3058 133.647 16.7058V16.7293H136.941Z" fill="white"/>
<path d="M48.6118 16.8706H46.2118C46.0706 16.447 45.6706 16.1411 45.1765 16.1411C45.1294 16.1411 45.1059 16.1411 45.0588 16.1411L43.9529 14.3294C43.8118 14.0941 43.4824 14 43.2471 14.1647C43.0118 14.3058 42.9177 14.6353 43.0824 14.8706L44.2118 16.7294C44.1412 16.8941 44.0941 17.0588 44.0941 17.247C44.0941 17.8588 44.5882 18.3294 45.1765 18.3294C45.6235 18.3294 46.0235 18.047 46.1882 17.647H48.5882C48.8 17.647 48.9647 17.4823 48.9647 17.2706C48.9882 17.0588 48.8235 16.8706 48.6118 16.8706Z" fill="white"/>
<path d="M53.1294 16.7293V16.7058C53.1294 12.494 49.6941 9.08228 45.5059 9.08228C41.2941 9.08228 37.8824 12.5176 37.8824 16.7058C37.8824 20.9176 41.3176 24.3293 45.5059 24.3293C47.9059 24.3293 50.0471 23.1999 51.4588 21.4587L49.1294 19.1293C48.3529 20.2823 47.0118 21.0587 45.5059 21.0587C43.1059 21.0587 41.1529 19.1058 41.1529 16.7058C41.1529 14.3058 43.1059 12.3529 45.5059 12.3529C47.9059 12.3529 49.8588 14.3058 49.8588 16.7058V16.7293H53.1294Z" fill="white"/>
<path d="M174.824 4.25879H171.294V23.9294H174.824V4.25879Z" fill="white"/>
</svg>
