<svg width="20" height="20" viewBox="0 0 20 20" fill="none" xmlns="http://www.w3.org/2000/svg">
<path d="M7.21633 20L10.4154 7.83567L19.3862 10.1112C19.2602 5.5778 16.1661 1.49151 11.5527 0.321265C10.6959 0.103918 9.83714 0 8.99224 0C5.28808 0 1.84976 1.99755 0 5.19376L9.20424 7.52849L6.00784 19.6826L7.21633 20ZM11.1812 1.98649C13.1015 2.4338 13.5078 5.55914 13.5113 7.33135L6.3389 5.51204C7.27751 4.1289 9.4229 1.58355 11.1812 1.98649ZM17.9291 8.45196L14.7561 7.6471C14.7747 6.67943 14.7098 4.29739 13.7451 2.58608C15.862 3.88065 17.3915 6.00424 17.9291 8.45196ZM8.85816 1.25188C6.89004 2.35163 5.34461 4.72747 5.05825 5.18718L2.07118 4.42951C3.76229 2.47037 6.23392 1.29086 8.85816 1.25188Z" fill="white"/>
</svg>
