<svg width="60" height="60" viewBox="0 0 60 60" fill="none" xmlns="http://www.w3.org/2000/svg">
<path fill-rule="evenodd" clip-rule="evenodd" d="M56.25 26.25C55.7575 26.2499 55.2698 26.3468 54.8148 26.5352C54.3597 26.7236 53.9463 26.9998 53.598 27.348C53.2498 27.6963 52.9736 28.1097 52.7852 28.5648C52.5968 29.0198 52.4999 29.5075 52.5 30V52.5H7.5V30C7.5 29.0054 7.10491 28.0516 6.40165 27.3484C5.69839 26.6451 4.74456 26.25 3.75 26.25C2.75544 26.25 1.80161 26.6451 1.09835 27.3484C0.395088 28.0516 1.48413e-07 29.0054 1.48413e-07 30V56.25C-0.000138425 56.7425 0.0967636 57.2302 0.28517 57.6852C0.473576 58.1403 0.749793 58.5537 1.09804 58.902C1.44629 59.2502 1.85974 59.5264 2.31477 59.7148C2.76981 59.9032 3.2575 60.0001 3.75 60H56.25C56.7425 60.0001 57.2302 59.9032 57.6852 59.7148C58.1403 59.5264 58.5537 59.2502 58.902 58.902C59.2502 58.5537 59.5264 58.1403 59.7148 57.6852C59.9032 57.2302 60.0001 56.7425 60 56.25V30C60.0001 29.5075 59.9032 29.0198 59.7148 28.5648C59.5264 28.1097 59.2502 27.6963 58.902 27.348C58.5537 26.9998 58.1403 26.7236 57.6852 26.5352C57.2302 26.3468 56.7425 26.2499 56.25 26.25Z" fill="white"/>
<path fill-rule="evenodd" clip-rule="evenodd" d="M26.25 37.5C26.25 38.4946 26.6451 39.4484 27.3484 40.1516C28.0516 40.8549 29.0054 41.25 30 41.25C30.9946 41.25 31.9484 40.8549 32.6516 40.1516C33.3549 39.4484 33.75 38.4946 33.75 37.5V15H45L30 0L15 15H26.25V37.5Z" fill="white"/>
</svg>
