<svg width="25" height="25" viewBox="0 0 25 25" fill="none" xmlns="http://www.w3.org/2000/svg">
<path fill-rule="evenodd" clip-rule="evenodd" d="M11.9048 2.38096C6.64491 2.38096 2.38096 6.64491 2.38096 11.9048C2.38096 17.1647 6.64491 21.4286 11.9048 21.4286C12.5623 21.4286 13.0953 21.9616 13.0953 22.6191C13.0953 23.2766 12.5623 23.8096 11.9048 23.8096C5.32995 23.8096 0 18.4795 0 11.9048C0 5.32995 5.32995 0 11.9048 0C18.4795 0 23.8096 5.32995 23.8096 11.9048C23.8096 12.5623 23.2766 13.0953 22.6191 13.0953C21.9616 13.0953 21.4286 12.5623 21.4286 11.9048C21.4286 6.64491 17.1647 2.38096 11.9048 2.38096ZM11.9048 3.57143C12.5623 3.57143 13.0953 4.10443 13.0953 4.76191V11.4117L13.937 12.2535C14.4019 12.7183 14.4019 13.4722 13.937 13.937C13.4722 14.4019 12.7183 14.4019 12.2535 13.937L11.063 12.7466C10.8398 12.5233 10.7143 12.2205 10.7143 11.9048V4.76191C10.7143 4.10443 11.2473 3.57143 11.9048 3.57143ZM17.5085 15.8249C17.0436 15.36 16.2898 15.36 15.8249 15.8249C15.36 16.2898 15.36 17.0436 15.8249 17.5085L18.5545 20.2381L15.8249 22.9678C15.36 23.4326 15.36 24.1865 15.8249 24.6513C16.2898 25.1162 17.0436 25.1162 17.5085 24.6513L20.2381 21.9217L22.9678 24.6513C23.4326 25.1162 24.1865 25.1162 24.6513 24.6513C25.1162 24.1865 25.1162 23.4326 24.6513 22.9678L21.9217 20.2381L24.6513 17.5085C25.1162 17.0436 25.1162 16.2898 24.6513 15.8249C24.1865 15.36 23.4326 15.36 22.9678 15.8249L20.2381 18.5545L17.5085 15.8249Z" fill="white"/>
</svg>
