<svg width="19" height="20" viewBox="0 0 19 20" fill="none" xmlns="http://www.w3.org/2000/svg">
<path d="M8.75 2.5C3.925 2.5 0 6.425 0 11.25C0 16.075 3.925 20 8.75 20C13.575 20 17.5 16.075 17.5 11.25C17.5 6.425 13.575 2.5 8.75 2.5ZM8.75 18.125C4.9625 18.125 1.875 15.0375 1.875 11.25C1.875 7.4625 4.9625 4.375 8.75 4.375C12.5375 4.375 15.625 7.4625 15.625 11.25C15.625 15.0375 12.5375 18.125 8.75 18.125ZM4.6875 0.9375C4.6875 0.425 5.1125 0 5.625 0H11.875C12.3875 0 12.8125 0.425 12.8125 0.9375C12.8125 1.45 12.3875 1.875 11.875 1.875H5.625C5.1125 1.875 4.6875 1.45 4.6875 0.9375ZM9.6875 7.5V11.25C9.6875 11.7625 9.2625 12.1875 8.75 12.1875C8.2375 12.1875 7.8125 11.7625 7.8125 11.25V7.5C7.8125 6.9875 8.2375 6.5625 8.75 6.5625C9.2625 6.5625 9.6875 6.9875 9.6875 7.5ZM17.8625 5.3375C17.675 5.525 17.4375 5.6125 17.2 5.6125C16.9625 5.6125 16.725 5.525 16.5375 5.3375L14.6625 3.4625C14.3 3.1 14.3 2.5 14.6625 2.1375C15.025 1.775 15.625 1.775 15.9875 2.1375L17.8625 4.0125C18.225 4.375 18.225 4.975 17.8625 5.3375Z" fill="white"/>
</svg>
